<svg width="26" height="26" viewBox="0 0 26 26" fill="none" xmlns="http://www.w3.org/2000/svg">
  <path d="M3.88232 5.90491C7.01044 1.85774 12.6452 0.508078 17.3481 2.73401L17.7964 2.95862C22.3542 5.37284 24.5782 10.6257 23.0269 15.525L23.0259 15.524C22.8976 15.9325 22.5861 16.2504 22.1919 16.3951L22.0181 16.4469C21.6028 16.5404 21.1679 16.4389 20.8403 16.1754L20.7075 16.0524C20.3699 15.698 20.2484 15.1905 20.395 14.7223V14.7213L20.4985 14.3639C21.4417 10.7802 19.7192 7.01917 16.3384 5.32288L15.9956 5.16077C12.3855 3.55093 8.13917 4.72223 5.9126 7.87659L5.70361 8.18811C3.5458 11.5706 4.28576 15.9944 7.44287 18.5289L7.74365 18.7594C10.7897 20.9817 15.0158 20.8441 17.9038 18.4303L18.188 18.1823C18.4436 17.9353 18.7859 17.7976 19.1411 17.7975C19.4579 17.7975 19.7652 17.9064 20.0093 18.1051L20.1099 18.1959L20.147 18.2321L20.1753 18.275L20.2339 18.3649L23.9175 21.9664L24.0278 22.0729L24.0415 22.1422C24.4638 22.6764 24.4267 23.4484 23.9292 23.9401L23.9272 23.943C23.3926 24.4634 22.5322 24.4634 21.9976 23.943L21.9966 23.942L19.0034 21.0153C14.9239 23.9128 9.3396 23.6977 5.50732 20.4996L5.13232 20.1715C1.18504 16.561 0.525833 10.6667 3.5874 6.3053L3.88232 5.90491Z" fill="#0D3B66" stroke="#0D3B66"/>
</svg>
  